<mxfile host="app.diagrams.net" agent="Mozilla/5.0 (Windows NT 10.0; Win64; x64) AppleWebKit/537.36 (KHTML, like Gecko) Chrome/132.0.0.0 Safari/537.36" version="26.0.8">
  <diagram id="C5RBs43oDa-KdzZeNtuy" name="Page-1">
    <mxGraphModel dx="993" dy="568" grid="1" gridSize="10" guides="1" tooltips="1" connect="1" arrows="1" fold="1" page="1" pageScale="1" pageWidth="827" pageHeight="1169" math="0" shadow="0">
      <root>
        <mxCell id="WIyWlLk6GJQsqaUBKTNV-0" />
        <mxCell id="WIyWlLk6GJQsqaUBKTNV-1" parent="WIyWlLk6GJQsqaUBKTNV-0" />
        <mxCell id="ZhLlOEHqrn00-ZrMMnng-4" value="" style="edgeStyle=orthogonalEdgeStyle;rounded=0;orthogonalLoop=1;jettySize=auto;html=1;" edge="1" parent="WIyWlLk6GJQsqaUBKTNV-1" source="ZhLlOEHqrn00-ZrMMnng-1" target="ZhLlOEHqrn00-ZrMMnng-3">
          <mxGeometry relative="1" as="geometry" />
        </mxCell>
        <mxCell id="ZhLlOEHqrn00-ZrMMnng-1" value="รับค่าจากเซนเซอร์&lt;div&gt;ตัวล่าง&lt;/div&gt;" style="shape=parallelogram;perimeter=parallelogramPerimeter;whiteSpace=wrap;html=1;fixedSize=1;strokeWidth=2;" vertex="1" parent="WIyWlLk6GJQsqaUBKTNV-1">
          <mxGeometry x="310" y="240" width="120" height="60" as="geometry" />
        </mxCell>
        <mxCell id="ZhLlOEHqrn00-ZrMMnng-10" value="" style="edgeStyle=orthogonalEdgeStyle;rounded=0;orthogonalLoop=1;jettySize=auto;html=1;" edge="1" parent="WIyWlLk6GJQsqaUBKTNV-1" source="ZhLlOEHqrn00-ZrMMnng-3" target="ZhLlOEHqrn00-ZrMMnng-9">
          <mxGeometry relative="1" as="geometry" />
        </mxCell>
        <mxCell id="ZhLlOEHqrn00-ZrMMnng-3" value="ตรวจพบน้ำ" style="rhombus;whiteSpace=wrap;html=1;strokeWidth=2;" vertex="1" parent="WIyWlLk6GJQsqaUBKTNV-1">
          <mxGeometry x="330" y="380" width="80" height="80" as="geometry" />
        </mxCell>
        <mxCell id="ZhLlOEHqrn00-ZrMMnng-38" value="" style="edgeStyle=orthogonalEdgeStyle;rounded=0;orthogonalLoop=1;jettySize=auto;html=1;" edge="1" parent="WIyWlLk6GJQsqaUBKTNV-1" source="ZhLlOEHqrn00-ZrMMnng-9" target="ZhLlOEHqrn00-ZrMMnng-36">
          <mxGeometry relative="1" as="geometry" />
        </mxCell>
        <mxCell id="ZhLlOEHqrn00-ZrMMnng-9" value="เปิด&amp;nbsp;โซลินอยด์วาล์ว" style="rounded=1;whiteSpace=wrap;html=1;strokeWidth=2;" vertex="1" parent="WIyWlLk6GJQsqaUBKTNV-1">
          <mxGeometry x="470" y="390" width="120" height="60" as="geometry" />
        </mxCell>
        <mxCell id="ZhLlOEHqrn00-ZrMMnng-15" style="edgeStyle=orthogonalEdgeStyle;rounded=0;orthogonalLoop=1;jettySize=auto;html=1;entryX=0.5;entryY=0;entryDx=0;entryDy=0;" edge="1" parent="WIyWlLk6GJQsqaUBKTNV-1" source="ZhLlOEHqrn00-ZrMMnng-11" target="ZhLlOEHqrn00-ZrMMnng-1">
          <mxGeometry relative="1" as="geometry" />
        </mxCell>
        <mxCell id="ZhLlOEHqrn00-ZrMMnng-11" value="" style="shape=waypoint;sketch=0;size=6;pointerEvents=1;points=[];fillColor=default;resizable=0;rotatable=0;perimeter=centerPerimeter;snapToPoint=1;rounded=1;strokeWidth=2;" vertex="1" parent="WIyWlLk6GJQsqaUBKTNV-1">
          <mxGeometry x="360" y="190" width="20" height="20" as="geometry" />
        </mxCell>
        <mxCell id="ZhLlOEHqrn00-ZrMMnng-21" value="" style="edgeStyle=orthogonalEdgeStyle;rounded=0;orthogonalLoop=1;jettySize=auto;html=1;" edge="1" parent="WIyWlLk6GJQsqaUBKTNV-1" source="ZhLlOEHqrn00-ZrMMnng-18" target="ZhLlOEHqrn00-ZrMMnng-20">
          <mxGeometry relative="1" as="geometry" />
        </mxCell>
        <mxCell id="ZhLlOEHqrn00-ZrMMnng-18" value="รับค่าจากเซนเซอร์&lt;div&gt;ตัวบน&lt;/div&gt;" style="shape=parallelogram;perimeter=parallelogramPerimeter;whiteSpace=wrap;html=1;fixedSize=1;rounded=1;strokeWidth=2;" vertex="1" parent="WIyWlLk6GJQsqaUBKTNV-1">
          <mxGeometry x="470" y="530" width="120" height="60" as="geometry" />
        </mxCell>
        <mxCell id="ZhLlOEHqrn00-ZrMMnng-23" value="" style="edgeStyle=orthogonalEdgeStyle;rounded=0;orthogonalLoop=1;jettySize=auto;html=1;" edge="1" parent="WIyWlLk6GJQsqaUBKTNV-1" source="ZhLlOEHqrn00-ZrMMnng-20" target="ZhLlOEHqrn00-ZrMMnng-22">
          <mxGeometry relative="1" as="geometry" />
        </mxCell>
        <mxCell id="ZhLlOEHqrn00-ZrMMnng-25" value="" style="edgeStyle=orthogonalEdgeStyle;rounded=0;orthogonalLoop=1;jettySize=auto;html=1;" edge="1" parent="WIyWlLk6GJQsqaUBKTNV-1" source="ZhLlOEHqrn00-ZrMMnng-20" target="ZhLlOEHqrn00-ZrMMnng-24">
          <mxGeometry relative="1" as="geometry" />
        </mxCell>
        <mxCell id="ZhLlOEHqrn00-ZrMMnng-20" value="ตรวจพบน้ำ" style="rhombus;whiteSpace=wrap;html=1;rounded=1;strokeWidth=2;" vertex="1" parent="WIyWlLk6GJQsqaUBKTNV-1">
          <mxGeometry x="490" y="660" width="80" height="80" as="geometry" />
        </mxCell>
        <mxCell id="ZhLlOEHqrn00-ZrMMnng-28" style="edgeStyle=orthogonalEdgeStyle;rounded=0;orthogonalLoop=1;jettySize=auto;html=1;" edge="1" parent="WIyWlLk6GJQsqaUBKTNV-1" source="ZhLlOEHqrn00-ZrMMnng-22" target="ZhLlOEHqrn00-ZrMMnng-26">
          <mxGeometry relative="1" as="geometry">
            <Array as="points">
              <mxPoint x="370" y="800" />
            </Array>
          </mxGeometry>
        </mxCell>
        <mxCell id="ZhLlOEHqrn00-ZrMMnng-37" value="" style="edgeStyle=orthogonalEdgeStyle;rounded=0;orthogonalLoop=1;jettySize=auto;html=1;" edge="1" parent="WIyWlLk6GJQsqaUBKTNV-1" source="ZhLlOEHqrn00-ZrMMnng-22" target="ZhLlOEHqrn00-ZrMMnng-36">
          <mxGeometry relative="1" as="geometry">
            <Array as="points">
              <mxPoint x="370" y="490" />
            </Array>
          </mxGeometry>
        </mxCell>
        <mxCell id="ZhLlOEHqrn00-ZrMMnng-22" value="เปิด โซลินอยด์วาล์ว" style="rounded=1;whiteSpace=wrap;html=1;strokeWidth=2;" vertex="1" parent="WIyWlLk6GJQsqaUBKTNV-1">
          <mxGeometry x="310" y="670" width="120" height="60" as="geometry" />
        </mxCell>
        <mxCell id="ZhLlOEHqrn00-ZrMMnng-27" value="" style="edgeStyle=orthogonalEdgeStyle;rounded=0;orthogonalLoop=1;jettySize=auto;html=1;" edge="1" parent="WIyWlLk6GJQsqaUBKTNV-1" source="ZhLlOEHqrn00-ZrMMnng-24" target="ZhLlOEHqrn00-ZrMMnng-26">
          <mxGeometry relative="1" as="geometry">
            <Array as="points">
              <mxPoint x="690" y="800" />
            </Array>
          </mxGeometry>
        </mxCell>
        <mxCell id="ZhLlOEHqrn00-ZrMMnng-24" value="ปิด โซลินอยด์วาล์ว" style="whiteSpace=wrap;html=1;rounded=1;strokeWidth=2;" vertex="1" parent="WIyWlLk6GJQsqaUBKTNV-1">
          <mxGeometry x="630" y="670" width="120" height="60" as="geometry" />
        </mxCell>
        <mxCell id="ZhLlOEHqrn00-ZrMMnng-32" value="" style="edgeStyle=orthogonalEdgeStyle;rounded=0;orthogonalLoop=1;jettySize=auto;html=1;entryX=0.5;entryY=0;entryDx=0;entryDy=0;entryPerimeter=0;" edge="1" parent="WIyWlLk6GJQsqaUBKTNV-1" source="ZhLlOEHqrn00-ZrMMnng-26" target="ZhLlOEHqrn00-ZrMMnng-33">
          <mxGeometry relative="1" as="geometry">
            <mxPoint x="530" y="860" as="targetPoint" />
          </mxGeometry>
        </mxCell>
        <mxCell id="ZhLlOEHqrn00-ZrMMnng-26" value="" style="shape=waypoint;sketch=0;size=6;pointerEvents=1;points=[];fillColor=default;resizable=0;rotatable=0;perimeter=centerPerimeter;snapToPoint=1;rounded=1;strokeWidth=2;" vertex="1" parent="WIyWlLk6GJQsqaUBKTNV-1">
          <mxGeometry x="520" y="790" width="20" height="20" as="geometry" />
        </mxCell>
        <mxCell id="ZhLlOEHqrn00-ZrMMnng-33" value="สิ้นสุด" style="strokeWidth=2;html=1;shape=mxgraph.flowchart.start_2;whiteSpace=wrap;" vertex="1" parent="WIyWlLk6GJQsqaUBKTNV-1">
          <mxGeometry x="480" y="870" width="100" height="60" as="geometry" />
        </mxCell>
        <mxCell id="ZhLlOEHqrn00-ZrMMnng-39" value="" style="edgeStyle=orthogonalEdgeStyle;rounded=0;orthogonalLoop=1;jettySize=auto;html=1;" edge="1" parent="WIyWlLk6GJQsqaUBKTNV-1" source="ZhLlOEHqrn00-ZrMMnng-36" target="ZhLlOEHqrn00-ZrMMnng-18">
          <mxGeometry relative="1" as="geometry" />
        </mxCell>
        <mxCell id="ZhLlOEHqrn00-ZrMMnng-36" value="" style="shape=waypoint;sketch=0;size=6;pointerEvents=1;points=[];fillColor=default;resizable=0;rotatable=0;perimeter=centerPerimeter;snapToPoint=1;rounded=1;strokeWidth=2;" vertex="1" parent="WIyWlLk6GJQsqaUBKTNV-1">
          <mxGeometry x="520" y="480" width="20" height="20" as="geometry" />
        </mxCell>
        <mxCell id="ZhLlOEHqrn00-ZrMMnng-40" style="edgeStyle=orthogonalEdgeStyle;rounded=0;orthogonalLoop=1;jettySize=auto;html=1;exitX=0.5;exitY=0;exitDx=0;exitDy=0;entryX=0.8;entryY=0.867;entryDx=0;entryDy=0;entryPerimeter=0;" edge="1" parent="WIyWlLk6GJQsqaUBKTNV-1" source="ZhLlOEHqrn00-ZrMMnng-24" target="ZhLlOEHqrn00-ZrMMnng-11">
          <mxGeometry relative="1" as="geometry">
            <Array as="points">
              <mxPoint x="690" y="200" />
            </Array>
          </mxGeometry>
        </mxCell>
        <mxCell id="ZhLlOEHqrn00-ZrMMnng-41" value="ใช่" style="text;html=1;align=center;verticalAlign=middle;resizable=0;points=[];autosize=1;strokeColor=none;fillColor=none;" vertex="1" parent="WIyWlLk6GJQsqaUBKTNV-1">
          <mxGeometry x="560" y="670" width="40" height="30" as="geometry" />
        </mxCell>
        <mxCell id="ZhLlOEHqrn00-ZrMMnng-42" value="ใช่" style="text;html=1;align=center;verticalAlign=middle;resizable=0;points=[];autosize=1;strokeColor=none;fillColor=none;" vertex="1" parent="WIyWlLk6GJQsqaUBKTNV-1">
          <mxGeometry x="300" y="390" width="40" height="30" as="geometry" />
        </mxCell>
        <mxCell id="ZhLlOEHqrn00-ZrMMnng-43" style="edgeStyle=orthogonalEdgeStyle;rounded=0;orthogonalLoop=1;jettySize=auto;html=1;exitX=0;exitY=0.5;exitDx=0;exitDy=0;entryX=0.333;entryY=0.667;entryDx=0;entryDy=0;entryPerimeter=0;" edge="1" parent="WIyWlLk6GJQsqaUBKTNV-1" source="ZhLlOEHqrn00-ZrMMnng-3" target="ZhLlOEHqrn00-ZrMMnng-11">
          <mxGeometry relative="1" as="geometry">
            <Array as="points">
              <mxPoint x="240" y="420" />
              <mxPoint x="240" y="200" />
            </Array>
          </mxGeometry>
        </mxCell>
        <mxCell id="ZhLlOEHqrn00-ZrMMnng-45" value="" style="edgeStyle=orthogonalEdgeStyle;rounded=0;orthogonalLoop=1;jettySize=auto;html=1;" edge="1" parent="WIyWlLk6GJQsqaUBKTNV-1" source="ZhLlOEHqrn00-ZrMMnng-44" target="ZhLlOEHqrn00-ZrMMnng-11">
          <mxGeometry relative="1" as="geometry" />
        </mxCell>
        <mxCell id="ZhLlOEHqrn00-ZrMMnng-44" value="สิ้นสุด" style="strokeWidth=2;html=1;shape=mxgraph.flowchart.start_2;whiteSpace=wrap;" vertex="1" parent="WIyWlLk6GJQsqaUBKTNV-1">
          <mxGeometry x="320" y="80" width="100" height="60" as="geometry" />
        </mxCell>
        <mxCell id="ZhLlOEHqrn00-ZrMMnng-46" value="ไม่" style="text;html=1;align=center;verticalAlign=middle;resizable=0;points=[];autosize=1;strokeColor=none;fillColor=none;" vertex="1" parent="WIyWlLk6GJQsqaUBKTNV-1">
          <mxGeometry x="394" y="390" width="40" height="30" as="geometry" />
        </mxCell>
        <mxCell id="ZhLlOEHqrn00-ZrMMnng-47" value="ไม่" style="text;html=1;align=center;verticalAlign=middle;resizable=0;points=[];autosize=1;strokeColor=none;fillColor=none;" vertex="1" parent="WIyWlLk6GJQsqaUBKTNV-1">
          <mxGeometry x="460" y="670" width="40" height="30" as="geometry" />
        </mxCell>
      </root>
    </mxGraphModel>
  </diagram>
</mxfile>
